<svg xmlns="http://www.w3.org/2000/svg" xmlns:xlink="http://www.w3.org/1999/xlink" version="1.1" x="0px" y="0px" viewBox="0 0 100 125" enable-background="new 0 0 100 100" xml:space="preserve"><path fill="#000000" d="M50.538,7.052c-0.601-2.098-0.973-1.77-0.973-1.77l0,0c0,0-0.372-0.328-0.972,1.77  s-6.695,19.751-6.695,43.436c0,23.685,7.01,45.075,7.667,45.075l0,0c0.659,0,7.668-21.391,7.668-45.075  C57.233,26.803,51.14,9.149,50.538,7.052z M49.565,84.812L49.565,84.812c-3.319,0-6.294-15.972-6.638-33.975  c-0.342-18.004,2.575-27.093,3.52-30.414c0.944-3.321,3.118-3.256,3.118-3.256s2.175-0.065,3.119,3.256  c0.944,3.321,3.861,12.41,3.519,30.414C55.86,68.841,52.885,84.812,49.565,84.812z"/><text x="0" y="115" fill="#000000" font-size="5px" font-weight="bold" font-family="'Helvetica Neue', Helvetica, Arial-Unicode, Arial, Sans-serif">Created by gzz</text><text x="0" y="120" fill="#000000" font-size="5px" font-weight="bold" font-family="'Helvetica Neue', Helvetica, Arial-Unicode, Arial, Sans-serif">from the Noun Project</text></svg>